<svg xmlns="http://www.w3.org/2000/svg" xmlns:xlink="http://www.w3.org/1999/xlink" width="1536" zoomAndPan="magnify" viewBox="0 0 1152 576" height="768" preserveAspectRatio="xMidYMid meet" version="1.0"><path stroke-linecap="butt" transform="matrix(0.71853, 0.214977, -0.214977, 0.71853, 0.107358, 203.374963)" fill="none" stroke-linejoin="miter" d="M 0.000222953 0.500138 L 1603.274775 0.501786 " stroke="#a7e2ff" stroke-width="1" stroke-opacity="1" stroke-miterlimit="4"/><path stroke-linecap="butt" transform="matrix(0.743392, 0.099342, -0.099342, 0.743392, 0.0496261, 413.899611)" fill="none" stroke-linejoin="miter" d="M -0.000254126 0.497646 L 1549.654579 0.502169 " stroke="#a7e2ff" stroke-width="1" stroke-opacity="1" stroke-miterlimit="4"/><path stroke-linecap="butt" transform="matrix(0.68322, 0.30937, -0.30937, 0.68322, -43.045407, -23.141183)" fill="none" stroke-linejoin="miter" d="M 0.000396049 0.498052 L 1749.363225 0.502343 " stroke="#a7e2ff" stroke-width="1" stroke-opacity="1" stroke-miterlimit="4"/><path stroke-linecap="butt" transform="matrix(0.601297, 0.448265, -0.448265, 0.601297, 388.383586, -79.498945)" fill="none" stroke-linejoin="miter" d="M 0.000015646 0.498454 L 1270.320933 0.500123 " stroke="#a7e2ff" stroke-width="1" stroke-opacity="1" stroke-miterlimit="4"/><path stroke-linecap="butt" transform="matrix(0.470251, 0.584264, -0.584264, 0.470251, 740.673665, -79.430588)" fill="none" stroke-linejoin="miter" d="M 0.00122531 0.498797 L 875.311829 0.502501 " stroke="#a7e2ff" stroke-width="1" stroke-opacity="1" stroke-miterlimit="4"/><path stroke-linecap="butt" transform="matrix(0.678888, -0.318765, 0.318765, 0.678888, 172.623802, 575.659268)" fill="none" stroke-linejoin="miter" d="M -0.00306406 0.500458 L 1442.38274 0.501316 " stroke="#a7e2ff" stroke-width="1" stroke-opacity="1" stroke-miterlimit="4"/><path stroke-linecap="butt" transform="matrix(0.375, 0.649519, -0.649519, 0.375, 947.576457, -122.283791)" fill="none" stroke-linejoin="miter" d="M -0.0027079 0.501049 L 545.992028 0.497997 " stroke="#a7e2ff" stroke-width="1" stroke-opacity="1" stroke-miterlimit="4"/><path stroke-linecap="butt" transform="matrix(0.676866, -0.323036, 0.323036, 0.676866, -0.161788, 382.240521)" fill="none" stroke-linejoin="miter" d="M 0.000800789 0.499157 L 1685.819176 0.50139 " stroke="#a7e2ff" stroke-width="1" stroke-opacity="1" stroke-miterlimit="4"/><path stroke-linecap="butt" transform="matrix(0.67082, -0.33541, 0.33541, 0.67082, 575.83188, 575.662964)" fill="none" stroke-linejoin="miter" d="M -0.00047464 0.502186 L 858.649658 0.502181 " stroke="#a7e2ff" stroke-width="1" stroke-opacity="1" stroke-miterlimit="4"/><path stroke-linecap="butt" transform="matrix(0.654713, -0.365856, 0.365856, 0.654713, 862.396068, 575.670764)" fill="none" stroke-linejoin="miter" d="M -0.00223652 0.501621 L 442.057142 0.501262 " stroke="#a7e2ff" stroke-width="1" stroke-opacity="1" stroke-miterlimit="4"/></svg>