<svg xmlns="http://www.w3.org/2000/svg" xmlns:xlink="http://www.w3.org/1999/xlink" width="1920" zoomAndPan="magnify" viewBox="0 0 1440 809.999993" height="1080" preserveAspectRatio="xMidYMid meet" version="1.0"><path stroke-linecap="butt" transform="matrix(0.720642, 0.207785, -0.207785, 0.720642, 0.103688, 326.641175)" fill="none" stroke-linejoin="miter" d="M -0.000290978 0.498008 L 1998.218419 0.502004 " stroke="#a7e2ff" stroke-width="1" stroke-opacity="1" stroke-miterlimit="4"/><path stroke-linecap="butt" transform="matrix(0.74451, 0.090582, -0.090582, 0.74451, 0.0452912, 607.427869)" fill="none" stroke-linejoin="miter" d="M 0.000105476 0.50087 L 1934.158611 0.499824 " stroke="#a7e2ff" stroke-width="1" stroke-opacity="1" stroke-miterlimit="4"/><path stroke-linecap="butt" transform="matrix(0.677239, 0.322253, -0.322253, 0.677239, 0.160625, 3.863649)" fill="none" stroke-linejoin="miter" d="M 0.00109445 0.500744 L 2126.280296 0.499832 " stroke="#a7e2ff" stroke-width="1" stroke-opacity="1" stroke-miterlimit="4"/><path stroke-linecap="butt" transform="matrix(0.602463, 0.446698, -0.446698, 0.602463, 597.822504, -0.298739)" fill="none" stroke-linejoin="miter" d="M -0.000483059 0.502704 L 1398.26132 0.498325 " stroke="#a7e2ff" stroke-width="1" stroke-opacity="1" stroke-miterlimit="4"/><path stroke-linecap="butt" transform="matrix(0.46671, 0.587096, -0.587096, 0.46671, 1045.803698, -0.231686)" fill="none" stroke-linejoin="miter" d="M -0.000439972 0.496977 L 845.258355 0.500599 " stroke="#a7e2ff" stroke-width="1" stroke-opacity="1" stroke-miterlimit="4"/><path stroke-linecap="butt" transform="matrix(0.670602, -0.335847, 0.335847, 0.670602, 152.80869, 809.664051)" fill="none" stroke-linejoin="miter" d="M -0.000447405 0.500742 L 1919.207795 0.497994 " stroke="#a7e2ff" stroke-width="1" stroke-opacity="1" stroke-miterlimit="4"/><path stroke-linecap="butt" transform="matrix(0.282193, 0.694886, -0.694886, 0.282193, 1407.452503, -0.139924)" fill="none" stroke-linejoin="miter" d="M -0.00124382 0.498907 L 116.564813 0.498329 " stroke="#a7e2ff" stroke-width="1" stroke-opacity="1" stroke-miterlimit="4"/><path stroke-linecap="butt" transform="matrix(0.670805, -0.335441, 0.335441, 0.670805, -0.168258, 522.478122)" fill="none" stroke-linejoin="miter" d="M 0.00125205 0.499099 L 1558.594259 0.498732 " stroke="#a7e2ff" stroke-width="1" stroke-opacity="1" stroke-miterlimit="4"/><path stroke-linecap="butt" transform="matrix(0.672286, -0.332463, 0.332463, 0.672286, 719.833554, 809.663067)" fill="none" stroke-linejoin="miter" d="M -0.000210793 0.501071 L 1070.972562 0.502154 " stroke="#a7e2ff" stroke-width="1" stroke-opacity="1" stroke-miterlimit="4"/><path stroke-linecap="butt" transform="matrix(0.670226, -0.336596, 0.336596, 0.670226, 1122.834094, 809.664531)" fill="none" stroke-linejoin="miter" d="M 0.00159157 0.50133 L 472.970342 0.501737 " stroke="#a7e2ff" stroke-width="1" stroke-opacity="1" stroke-miterlimit="4"/></svg>