<svg xmlns="http://www.w3.org/2000/svg" xmlns:xlink="http://www.w3.org/1999/xlink" width="1536" zoomAndPan="magnify" viewBox="0 0 1152 576" height="768" preserveAspectRatio="xMidYMid meet" version="1.0"><defs><filter x="0%" y="0%" width="100%" height="100%" id="0018131b52"><feColorMatrix values="0 0 0 0 1 0 0 0 0 1 0 0 0 0 1 0 0 0 1 0" color-interpolation-filters="sRGB"/></filter><mask id="df81883253"><g filter="url(#0018131b52)"><rect x="-115.2" width="1382.4" fill="#000000" y="-57.6" height="691.2" fill-opacity="0.3"/></g></mask><clipPath id="f8be6ebd00"><path d="M 0 0.0390625 L 1152 0.0390625 L 1152 346.121094 L 0 346.121094 Z M 0 0.0390625 " clip-rule="nonzero"/></clipPath><clipPath id="c0a0162991"><rect x="0" width="1152" y="0" height="347"/></clipPath><mask id="a0e33ccce3"><g filter="url(#0018131b52)"><rect x="-115.2" width="1382.4" fill="#000000" y="-57.6" height="691.2" fill-opacity="0.3"/></g></mask><clipPath id="6d5face183"><path d="M 0 0.761719 L 1152 0.761719 L 1152 155.800781 L 0 155.800781 Z M 0 0.761719 " clip-rule="nonzero"/></clipPath><clipPath id="f8c353c223"><rect x="0" width="1152" y="0" height="156"/></clipPath><mask id="8fedcdf8ff"><g filter="url(#0018131b52)"><rect x="-115.2" width="1382.4" fill="#000000" y="-57.6" height="691.2" fill-opacity="0.3"/></g></mask><clipPath id="dc78cfef02"><path d="M 0 0 L 1152 0 L 1152 519.121094 L 0 519.121094 Z M 0 0 " clip-rule="nonzero"/></clipPath><clipPath id="a8793f5cf8"><rect x="0" width="1152" y="0" height="520"/></clipPath><mask id="9663de2172"><g filter="url(#0018131b52)"><rect x="-115.2" width="1382.4" fill="#000000" y="-57.6" height="691.2" fill-opacity="0.3"/></g></mask><clipPath id="299f898b50"><path d="M 0.921875 0 L 665 0 L 665 490.800781 L 0.921875 490.800781 Z M 0.921875 0 " clip-rule="nonzero"/></clipPath><clipPath id="c771db4b40"><rect x="0" width="665" y="0" height="491"/></clipPath><mask id="66792048b7"><g filter="url(#0018131b52)"><rect x="-115.2" width="1382.4" fill="#000000" y="-57.6" height="691.2" fill-opacity="0.3"/></g></mask><clipPath id="8de82923f0"><path d="M 0.640625 0 L 346 0 L 346 433.199219 L 0.640625 433.199219 Z M 0.640625 0 " clip-rule="nonzero"/></clipPath><clipPath id="c7feb82fae"><rect x="0" width="346" y="0" height="434"/></clipPath><mask id="de7b5fd4b9"><g filter="url(#0018131b52)"><rect x="-115.2" width="1382.4" fill="#000000" y="-57.6" height="691.2" fill-opacity="0.3"/></g></mask><clipPath id="4faba68030"><path d="M 0.839844 0.679688 L 981 0.679688 L 981 461 L 0.839844 461 Z M 0.839844 0.679688 " clip-rule="nonzero"/></clipPath><clipPath id="1fa048d11a"><rect x="0" width="981" y="0" height="461"/></clipPath><mask id="73c487e420"><g filter="url(#0018131b52)"><rect x="-115.2" width="1382.4" fill="#000000" y="-57.6" height="691.2" fill-opacity="0.3"/></g></mask><clipPath id="7e275c9408"><path d="M 0.921875 0 L 89 0 L 89 233.28125 L 0.921875 233.28125 Z M 0.921875 0 " clip-rule="nonzero"/></clipPath><clipPath id="be254cd434"><rect x="0" width="89" y="0" height="234"/></clipPath><mask id="0a3d49e521"><g filter="url(#0018131b52)"><rect x="-115.2" width="1382.4" fill="#000000" y="-57.6" height="691.2" fill-opacity="0.3"/></g></mask><clipPath id="ec7c082604"><path d="M 0 0 L 808.078125 0 L 808.078125 383.28125 L 0 383.28125 Z M 0 0 " clip-rule="nonzero"/></clipPath><clipPath id="47b7f3a760"><rect x="0" width="809" y="0" height="384"/></clipPath><mask id="54cfdc9acf"><g filter="url(#0018131b52)"><rect x="-115.2" width="1382.4" fill="#000000" y="-57.6" height="691.2" fill-opacity="0.3"/></g></mask><clipPath id="7a19670f2c"><path d="M 0.0390625 0.0390625 L 577 0.0390625 L 577 289 L 0.0390625 289 Z M 0.0390625 0.0390625 " clip-rule="nonzero"/></clipPath><clipPath id="d144eaad92"><rect x="0" width="577" y="0" height="289"/></clipPath><mask id="5c6b529b7a"><g filter="url(#0018131b52)"><rect x="-115.2" width="1382.4" fill="#000000" y="-57.6" height="691.2" fill-opacity="0.3"/></g></mask><clipPath id="f0c540e67f"><path d="M 0.601562 0.519531 L 291 0.519531 L 291 163 L 0.601562 163 Z M 0.601562 0.519531 " clip-rule="nonzero"/></clipPath><clipPath id="1315bc9719"><rect x="0" width="291" y="0" height="163"/></clipPath></defs><g mask="url(#df81883253)"><g transform="matrix(1, 0, 0, 1, 0, 203)"><g clip-path="url(#c0a0162991)"><g clip-path="url(#f8be6ebd00)"><path stroke-linecap="butt" transform="matrix(0.71853, 0.214977, -0.214977, 0.71853, 0.107358, 0.374963)" fill="none" stroke-linejoin="miter" d="M 0.000222964 0.500139 L 1603.274775 0.501786 " stroke="#a7e2ff" stroke-width="1" stroke-opacity="1" stroke-miterlimit="4"/></g></g></g></g><g mask="url(#a0e33ccce3)"><g transform="matrix(1, 0, 0, 1, 0, 413)"><g clip-path="url(#f8c353c223)"><g clip-path="url(#6d5face183)"><path stroke-linecap="butt" transform="matrix(0.743392, 0.099342, -0.099342, 0.743392, 0.0496261, 0.899602)" fill="none" stroke-linejoin="miter" d="M -0.000252644 0.497657 L 1549.65458 0.50218 " stroke="#a7e2ff" stroke-width="1" stroke-opacity="1" stroke-miterlimit="4"/></g></g></g></g><g mask="url(#8fedcdf8ff)"><g transform="matrix(1, 0, 0, 1, 0, -0.000000000000014788)"><g clip-path="url(#a8793f5cf8)"><g clip-path="url(#dc78cfef02)"><path stroke-linecap="butt" transform="matrix(0.683941, 0.307774, -0.307774, 0.683941, 0.153498, -0.340138)" fill="none" stroke-linejoin="miter" d="M -0.000529686 0.497559 L 1684.356267 0.500419 " stroke="#a7e2ff" stroke-width="1" stroke-opacity="1" stroke-miterlimit="4"/></g></g></g></g><g mask="url(#9663de2172)"><g transform="matrix(1, 0, 0, 1, 487, -0.000000000000014788)"><g clip-path="url(#c771db4b40)"><g clip-path="url(#299f898b50)"><path stroke-linecap="butt" transform="matrix(0.603059, 0.445891, -0.445891, 0.603059, 2.182411, -0.299912)" fill="none" stroke-linejoin="miter" d="M 0.000296035 0.497099 L 1099.461358 0.500171 " stroke="#a7e2ff" stroke-width="1" stroke-opacity="1" stroke-miterlimit="4"/></g></g></g></g><g mask="url(#66792048b7)"><g transform="matrix(1, 0, 0, 1, 806, -0.000000000000014788)"><g clip-path="url(#c7feb82fae)"><g clip-path="url(#8de82923f0)"><path stroke-linecap="butt" transform="matrix(0.46749, 0.586475, -0.586475, 0.46749, 1.765611, -0.229324)" fill="none" stroke-linejoin="miter" d="M -0.000301265 0.499278 L 736.967776 0.502631 " stroke="#a7e2ff" stroke-width="1" stroke-opacity="1" stroke-miterlimit="4"/></g></g></g></g><g mask="url(#de7b5fd4b9)"><g transform="matrix(1, 0, 0, 1, 171, 115)"><g clip-path="url(#1fa048d11a)"><g clip-path="url(#4faba68030)"><path stroke-linecap="butt" transform="matrix(0.678888, -0.318765, 0.318765, 0.678888, 1.623801, 460.659268)" fill="none" stroke-linejoin="miter" d="M -0.0030638 0.500459 L 1442.38274 0.501316 " stroke="#a7e2ff" stroke-width="1" stroke-opacity="1" stroke-miterlimit="4"/></g></g></g></g><g mask="url(#73c487e420)"><g transform="matrix(1, 0, 0, 1, 1063, -0.000000000000014788)"><g clip-path="url(#be254cd434)"><g clip-path="url(#7e275c9408)"><path stroke-linecap="butt" transform="matrix(0.263849, 0.702057, -0.702057, 0.263849, 1.956245, -0.126942)" fill="none" stroke-linejoin="miter" d="M -0.00122478 0.49918 L 331.218013 0.500928 " stroke="#a7e2ff" stroke-width="1" stroke-opacity="1" stroke-miterlimit="4"/></g></g></g></g><g mask="url(#0a3d49e521)"><g transform="matrix(1, 0, 0, 1, 0, -0.000000000000014788)"><g clip-path="url(#47b7f3a760)"><g clip-path="url(#ec7c082604)"><path stroke-linecap="butt" transform="matrix(0.677773, -0.321128, 0.321128, 0.677773, -0.160713, 382.240581)" fill="none" stroke-linejoin="miter" d="M 0.000946414 0.498468 L 1191.361113 0.499838 " stroke="#a7e2ff" stroke-width="1" stroke-opacity="1" stroke-miterlimit="4"/></g></g></g></g><g mask="url(#54cfdc9acf)"><g transform="matrix(1, 0, 0, 1, 575, 287)"><g clip-path="url(#d144eaad92)"><g clip-path="url(#7a19670f2c)"><path stroke-linecap="butt" transform="matrix(0.67082, -0.33541, 0.33541, 0.67082, 0.831871, 288.662964)" fill="none" stroke-linejoin="miter" d="M -0.000463334 0.502192 L 858.64967 0.502187 " stroke="#a7e2ff" stroke-width="1" stroke-opacity="1" stroke-miterlimit="4"/></g></g></g></g><g mask="url(#5c6b529b7a)"><g transform="matrix(1, 0, 0, 1, 861, 413)"><g clip-path="url(#1315bc9719)"><g clip-path="url(#f0c540e67f)"><path stroke-linecap="butt" transform="matrix(0.654713, -0.365856, 0.365856, 0.654713, 1.396077, 162.670757)" fill="none" stroke-linejoin="miter" d="M -0.00225202 0.501623 L 442.057127 0.501264 " stroke="#a7e2ff" stroke-width="1" stroke-opacity="1" stroke-miterlimit="4"/></g></g></g></g></svg>