<svg xmlns="http://www.w3.org/2000/svg" xmlns:xlink="http://www.w3.org/1999/xlink" width="1536" zoomAndPan="magnify" viewBox="0 0 1152 576" height="768" preserveAspectRatio="xMidYMid meet" version="1.0"><defs><filter x="0%" y="0%" width="100%" height="100%" id="904e056d8a"><feColorMatrix values="0 0 0 0 1 0 0 0 0 1 0 0 0 0 1 0 0 0 1 0" color-interpolation-filters="sRGB"/></filter><mask id="e43c8bce7d"><g filter="url(#904e056d8a)"><rect x="-115.2" width="1382.4" fill="#000000" y="-57.6" height="691.2" fill-opacity="0.4"/></g></mask><clipPath id="3608217efc"><path d="M 0 0.640625 L 1152 0.640625 L 1152 391.121094 L 0 391.121094 Z M 0 0.640625 " clip-rule="nonzero"/></clipPath><clipPath id="281f5e01d2"><rect x="0" width="1152" y="0" height="392"/></clipPath><mask id="92cf345afb"><g filter="url(#904e056d8a)"><rect x="-115.2" width="1382.4" fill="#000000" y="-57.6" height="691.2" fill-opacity="0.4"/></g></mask><clipPath id="6d43e953b2"><path d="M 0 0.359375 L 1152 0.359375 L 1152 187.800781 L 0 187.800781 Z M 0 0.359375 " clip-rule="nonzero"/></clipPath><clipPath id="7c5e5a3e02"><rect x="0" width="1152" y="0" height="188"/></clipPath><mask id="0238404bd5"><g filter="url(#904e056d8a)"><rect x="-115.2" width="1382.4" fill="#000000" y="-57.6" height="691.2" fill-opacity="0.4"/></g></mask><clipPath id="fb8d1e4d0d"><path d="M 0 0 L 1152 0 L 1152 519.121094 L 0 519.121094 Z M 0 0 " clip-rule="nonzero"/></clipPath><clipPath id="66525ac790"><rect x="0" width="1152" y="0" height="520"/></clipPath><mask id="c1d07fef78"><g filter="url(#904e056d8a)"><rect x="-115.2" width="1382.4" fill="#000000" y="-57.6" height="691.2" fill-opacity="0.4"/></g></mask><clipPath id="5e39a2a3df"><path d="M 0.480469 0 L 834 0 L 834 491.039062 L 0.480469 491.039062 Z M 0.480469 0 " clip-rule="nonzero"/></clipPath><clipPath id="80c35c70dd"><rect x="0" width="834" y="0" height="492"/></clipPath><mask id="9609a085d2"><g filter="url(#904e056d8a)"><rect x="-115.2" width="1382.4" fill="#000000" y="-57.6" height="691.2" fill-opacity="0.4"/></g></mask><clipPath id="a52acad452"><path d="M 0.0390625 0 L 457 0 L 457 433.199219 L 0.0390625 433.199219 Z M 0.0390625 0 " clip-rule="nonzero"/></clipPath><clipPath id="9ec67028f1"><rect x="0" width="457" y="0" height="434"/></clipPath><mask id="1c718402c3"><g filter="url(#904e056d8a)"><rect x="-115.2" width="1382.4" fill="#000000" y="-57.6" height="691.2" fill-opacity="0.4"/></g></mask><clipPath id="abc32dcf06"><path d="M 0.839844 0.679688 L 981 0.679688 L 981 461 L 0.839844 461 Z M 0.839844 0.679688 " clip-rule="nonzero"/></clipPath><clipPath id="a7314daeee"><rect x="0" width="981" y="0" height="461"/></clipPath><mask id="045bb3cf43"><g filter="url(#904e056d8a)"><rect x="-115.2" width="1382.4" fill="#000000" y="-57.6" height="691.2" fill-opacity="0.4"/></g></mask><clipPath id="19b72e05ea"><path d="M 0.320312 0 L 206 0 L 206 233.519531 L 0.320312 233.519531 Z M 0.320312 0 " clip-rule="nonzero"/></clipPath><clipPath id="ce638acba6"><rect x="0" width="206" y="0" height="234"/></clipPath><mask id="17d4ea8a5c"><g filter="url(#904e056d8a)"><rect x="-115.2" width="1382.4" fill="#000000" y="-57.6" height="691.2" fill-opacity="0.4"/></g></mask><clipPath id="0b5205e1b6"><path d="M 0 0 L 1142.160156 0 L 1142.160156 432.960938 L 0 432.960938 Z M 0 0 " clip-rule="nonzero"/></clipPath><clipPath id="c8cb465acd"><rect x="0" width="1143" y="0" height="433"/></clipPath><mask id="a1dc8acda8"><g filter="url(#904e056d8a)"><rect x="-115.2" width="1382.4" fill="#000000" y="-57.6" height="691.2" fill-opacity="0.4"/></g></mask><clipPath id="19a21ee2fb"><path d="M 0.0390625 0.0390625 L 577 0.0390625 L 577 289 L 0.0390625 289 Z M 0.0390625 0.0390625 " clip-rule="nonzero"/></clipPath><clipPath id="3c0ddb3117"><rect x="0" width="577" y="0" height="289"/></clipPath><mask id="5cb60b8d5c"><g filter="url(#904e056d8a)"><rect x="-115.2" width="1382.4" fill="#000000" y="-57.6" height="691.2" fill-opacity="0.4"/></g></mask><clipPath id="939aadaa2f"><path d="M 0.601562 0.519531 L 291 0.519531 L 291 163 L 0.601562 163 Z M 0.601562 0.519531 " clip-rule="nonzero"/></clipPath><clipPath id="0d2902f819"><rect x="0" width="291" y="0" height="163"/></clipPath></defs><g mask="url(#e43c8bce7d)"><g transform="matrix(1, 0, 0, 1, 0, 158)"><g clip-path="url(#281f5e01d2)"><g clip-path="url(#3608217efc)"><path stroke-linecap="butt" transform="matrix(0.715329, 0.225399, -0.225399, 0.715329, -82.632733, 0.977308)" fill="none" stroke-linejoin="miter" d="M -0.00045377 0.501492 L 1726.123278 0.500988 " stroke="#a7e2ff" stroke-width="1" stroke-opacity="1" stroke-miterlimit="4"/></g></g></g></g><g mask="url(#92cf345afb)"><g transform="matrix(1, 0, 0, 1, 0, 381)"><g clip-path="url(#7c5e5a3e02)"><g clip-path="url(#6d43e953b2)"><path stroke-linecap="butt" transform="matrix(0.741612, 0.111857, -0.111857, 0.741612, -82.689328, 0.609643)" fill="none" stroke-linejoin="miter" d="M -0.00109998 0.500193 L 1664.948834 0.502213 " stroke="#a7e2ff" stroke-width="1" stroke-opacity="1" stroke-miterlimit="4"/></g></g></g></g><g mask="url(#0238404bd5)"><g transform="matrix(1, 0, 0, 1, 0, -0.000000000000014788)"><g clip-path="url(#66525ac790)"><g clip-path="url(#fb8d1e4d0d)"><path stroke-linecap="butt" transform="matrix(0.681059, 0.314099, -0.314099, 0.681059, -82.588451, -51.393604)" fill="none" stroke-linejoin="miter" d="M -0.00161896 0.498378 L 1812.978468 0.500961 " stroke="#a7e2ff" stroke-width="1" stroke-opacity="1" stroke-miterlimit="4"/></g></g></g></g><g mask="url(#c1d07fef78)"><g transform="matrix(1, 0, 0, 1, 318, -0.000000000000014788)"><g clip-path="url(#80c35c70dd)"><g clip-path="url(#5e39a2a3df)"><path stroke-linecap="butt" transform="matrix(0.604156, 0.444405, -0.444405, 0.604156, 1.763453, -122.398379)" fill="none" stroke-linejoin="miter" d="M 0.000773934 0.497187 L 1377.886308 0.499191 " stroke="#a7e2ff" stroke-width="1" stroke-opacity="1" stroke-miterlimit="4"/></g></g></g></g><g mask="url(#9609a085d2)"><g transform="matrix(1, 0, 0, 1, 695, -0.000000000000014788)"><g clip-path="url(#9ec67028f1)"><g clip-path="url(#a52acad452)"><path stroke-linecap="butt" transform="matrix(0.476484, 0.579192, -0.579192, 0.476484, 1.27167, -122.333193)" fill="none" stroke-linejoin="miter" d="M -0.000123918 0.50267 L 957.047399 0.499585 " stroke="#a7e2ff" stroke-width="1" stroke-opacity="1" stroke-miterlimit="4"/></g></g></g></g><g mask="url(#1c718402c3)"><g transform="matrix(1, 0, 0, 1, 171, 115)"><g clip-path="url(#a7314daeee)"><g clip-path="url(#abc32dcf06)"><path stroke-linecap="butt" transform="matrix(0.678888, -0.318765, 0.318765, 0.678888, 1.623801, 460.659268)" fill="none" stroke-linejoin="miter" d="M -0.0030638 0.500459 L 1442.38274 0.501316 " stroke="#a7e2ff" stroke-width="1" stroke-opacity="1" stroke-miterlimit="4"/></g></g></g></g><g mask="url(#045bb3cf43)"><g transform="matrix(1, 0, 0, 1, 946, -0.000000000000014788)"><g clip-path="url(#ce638acba6)"><g clip-path="url(#19b72e05ea)"><path stroke-linecap="butt" transform="matrix(0.375, 0.649519, -0.649519, 0.375, 1.576445, -122.283791)" fill="none" stroke-linejoin="miter" d="M -0.00270016 0.501036 L 545.992035 0.497983 " stroke="#a7e2ff" stroke-width="1" stroke-opacity="1" stroke-miterlimit="4"/></g></g></g></g><g mask="url(#17d4ea8a5c)"><g transform="matrix(1, 0, 0, 1, 0, -0.000000000000014788)"><g clip-path="url(#c8cb465acd)"><g clip-path="url(#0b5205e1b6)"><path stroke-linecap="butt" transform="matrix(0.674677, -0.327583, 0.327583, 0.674677, -82.909434, 431.874122)" fill="none" stroke-linejoin="miter" d="M -0.000236252 0.49911 L 1813.932489 0.502315 " stroke="#a7e2ff" stroke-width="1" stroke-opacity="1" stroke-miterlimit="4"/></g></g></g></g><g mask="url(#a1dc8acda8)"><g transform="matrix(1, 0, 0, 1, 575, 287)"><g clip-path="url(#3c0ddb3117)"><g clip-path="url(#19a21ee2fb)"><path stroke-linecap="butt" transform="matrix(0.67082, -0.33541, 0.33541, 0.67082, 0.831871, 288.662964)" fill="none" stroke-linejoin="miter" d="M -0.000463334 0.502192 L 858.64967 0.502187 " stroke="#a7e2ff" stroke-width="1" stroke-opacity="1" stroke-miterlimit="4"/></g></g></g></g><g mask="url(#5cb60b8d5c)"><g transform="matrix(1, 0, 0, 1, 861, 413)"><g clip-path="url(#0d2902f819)"><g clip-path="url(#939aadaa2f)"><path stroke-linecap="butt" transform="matrix(0.654713, -0.365856, 0.365856, 0.654713, 1.396077, 162.670757)" fill="none" stroke-linejoin="miter" d="M -0.00225202 0.501623 L 442.057127 0.501264 " stroke="#a7e2ff" stroke-width="1" stroke-opacity="1" stroke-miterlimit="4"/></g></g></g></g></svg>
