<svg xmlns="http://www.w3.org/2000/svg" xmlns:xlink="http://www.w3.org/1999/xlink" width="1536" zoomAndPan="magnify" viewBox="0 0 1152 576" height="768" preserveAspectRatio="xMidYMid meet" version="1.0"><path stroke-linecap="butt" transform="matrix(0.71853, 0.214977, -0.214977, 0.71853, 0.107358, 203.374963)" fill="none" stroke-linejoin="miter" d="M 0.000222953 0.500138 L 1603.274775 0.501786 " stroke="#a7e2ff" stroke-width="1" stroke-opacity="1" stroke-miterlimit="4"/><path stroke-linecap="butt" transform="matrix(0.743392, 0.099342, -0.099342, 0.743392, 0.0496261, 413.899611)" fill="none" stroke-linejoin="miter" d="M -0.000254126 0.497646 L 1549.654579 0.502169 " stroke="#a7e2ff" stroke-width="1" stroke-opacity="1" stroke-miterlimit="4"/><path stroke-linecap="butt" transform="matrix(0.683941, 0.307774, -0.307774, 0.683941, 0.153498, -0.340138)" fill="none" stroke-linejoin="miter" d="M -0.000529686 0.497559 L 1684.356267 0.500419 " stroke="#a7e2ff" stroke-width="1" stroke-opacity="1" stroke-miterlimit="4"/><path stroke-linecap="butt" transform="matrix(0.603059, 0.445891, -0.445891, 0.603059, 489.182404, -0.299912)" fill="none" stroke-linejoin="miter" d="M 0.000304217 0.497093 L 1099.461366 0.500165 " stroke="#a7e2ff" stroke-width="1" stroke-opacity="1" stroke-miterlimit="4"/><path stroke-linecap="butt" transform="matrix(0.46749, 0.586475, -0.586475, 0.46749, 807.765614, -0.229324)" fill="none" stroke-linejoin="miter" d="M -0.000304157 0.499281 L 736.967773 0.502635 " stroke="#a7e2ff" stroke-width="1" stroke-opacity="1" stroke-miterlimit="4"/><path stroke-linecap="butt" transform="matrix(0.678888, -0.318765, 0.318765, 0.678888, 172.623802, 575.659268)" fill="none" stroke-linejoin="miter" d="M -0.00306406 0.500458 L 1442.38274 0.501316 " stroke="#a7e2ff" stroke-width="1" stroke-opacity="1" stroke-miterlimit="4"/><path stroke-linecap="butt" transform="matrix(0.263849, 0.702057, -0.702057, 0.263849, 1064.956252, -0.126942)" fill="none" stroke-linejoin="miter" d="M -0.00122803 0.499189 L 331.21801 0.500936 " stroke="#a7e2ff" stroke-width="1" stroke-opacity="1" stroke-miterlimit="4"/><path stroke-linecap="butt" transform="matrix(0.677773, -0.321128, 0.321128, 0.677773, -0.160713, 382.240581)" fill="none" stroke-linejoin="miter" d="M 0.000946414 0.498468 L 1191.361113 0.499838 " stroke="#a7e2ff" stroke-width="1" stroke-opacity="1" stroke-miterlimit="4"/><path stroke-linecap="butt" transform="matrix(0.67082, -0.33541, 0.33541, 0.67082, 575.83188, 575.662964)" fill="none" stroke-linejoin="miter" d="M -0.00047464 0.502186 L 858.649658 0.502181 " stroke="#a7e2ff" stroke-width="1" stroke-opacity="1" stroke-miterlimit="4"/><path stroke-linecap="butt" transform="matrix(0.654713, -0.365856, 0.365856, 0.654713, 862.396068, 575.670764)" fill="none" stroke-linejoin="miter" d="M -0.00223652 0.501621 L 442.057142 0.501262 " stroke="#a7e2ff" stroke-width="1" stroke-opacity="1" stroke-miterlimit="4"/></svg>