<svg xmlns="http://www.w3.org/2000/svg" xmlns:xlink="http://www.w3.org/1999/xlink" width="1920" zoomAndPan="magnify" viewBox="0 0 1440 809.999993" height="1080" preserveAspectRatio="xMidYMid meet" version="1.0"><defs><filter x="0%" y="0%" width="100%" height="100%" id="ec9f788e87"><feColorMatrix values="0 0 0 0 1 0 0 0 0 1 0 0 0 0 1 0 0 0 1 0" color-interpolation-filters="sRGB"/></filter><mask id="e69f84af2b"><g filter="url(#ec9f788e87)"><rect x="-144" width="1728" fill="#000000" y="-80.999999" height="971.999992" fill-opacity="0.3"/></g></mask><clipPath id="d15eb26fff"><path d="M 0 0.640625 L 1440 0.640625 L 1440 417.28125 L 0 417.28125 Z M 0 0.640625 " clip-rule="nonzero"/></clipPath><clipPath id="48517ef49b"><rect x="0" width="1440" y="0" height="418"/></clipPath><mask id="51cd30da46"><g filter="url(#ec9f788e87)"><rect x="-144" width="1728" fill="#000000" y="-80.999999" height="971.999992" fill-opacity="0.3"/></g></mask><clipPath id="9fee38467a"><path d="M 0 0.441406 L 1440 0.441406 L 1440 176.839844 L 0 176.839844 Z M 0 0.441406 " clip-rule="nonzero"/></clipPath><clipPath id="dae374e25a"><rect x="0" width="1440" y="0" height="177"/></clipPath><mask id="6df5dbaedb"><g filter="url(#ec9f788e87)"><rect x="-144" width="1728" fill="#000000" y="-80.999999" height="971.999992" fill-opacity="0.3"/></g></mask><clipPath id="9275214731"><path d="M 0 0.839844 L 1440 0.839844 L 1440 687.480469 L 0 687.480469 Z M 0 0.839844 " clip-rule="nonzero"/></clipPath><clipPath id="298ed6c8ac"><rect x="0" width="1440" y="0" height="688"/></clipPath><mask id="0045224dee"><g filter="url(#ec9f788e87)"><rect x="-144" width="1728" fill="#000000" y="-80.999999" height="971.999992" fill-opacity="0.3"/></g></mask><clipPath id="260563d3f5"><path d="M 0.398438 0 L 844 0 L 844 625.679688 L 0.398438 625.679688 Z M 0.398438 0 " clip-rule="nonzero"/></clipPath><clipPath id="536857b6a7"><rect x="0" width="844" y="0" height="626"/></clipPath><mask id="7033daf7cc"><g filter="url(#ec9f788e87)"><rect x="-144" width="1728" fill="#000000" y="-80.999999" height="971.999992" fill-opacity="0.3"/></g></mask><clipPath id="8aa6f70033"><path d="M 0.238281 0 L 396 0 L 396 497.28125 L 0.238281 497.28125 Z M 0.238281 0 " clip-rule="nonzero"/></clipPath><clipPath id="2866f9babf"><rect x="0" width="396" y="0" height="498"/></clipPath><mask id="3eb1b38b3c"><g filter="url(#ec9f788e87)"><rect x="-144" width="1728" fill="#000000" y="-80.999999" height="971.999992" fill-opacity="0.3"/></g></mask><clipPath id="089884ceb7"><path d="M 0.679688 0.121094 L 1289 0.121094 L 1289 645 L 0.679688 645 Z M 0.679688 0.121094 " clip-rule="nonzero"/></clipPath><clipPath id="18ed1b9287"><rect x="0" width="1289" y="0" height="645"/></clipPath><mask id="c5ad70daaf"><g filter="url(#ec9f788e87)"><rect x="-144" width="1728" fill="#000000" y="-80.999999" height="971.999992" fill-opacity="0.3"/></g></mask><clipPath id="9f2154ce2d"><path d="M 0.921875 0 L 35 0 L 35 82.558594 L 0.921875 82.558594 Z M 0.921875 0 " clip-rule="nonzero"/></clipPath><clipPath id="5ea8fedb72"><rect x="0" width="35" y="0" height="83"/></clipPath><mask id="b276f3b176"><g filter="url(#ec9f788e87)"><rect x="-144" width="1728" fill="#000000" y="-80.999999" height="971.999992" fill-opacity="0.3"/></g></mask><clipPath id="10fedca02e"><path d="M 0 0 L 1046.398438 0 L 1046.398438 523.921875 L 0 523.921875 Z M 0 0 " clip-rule="nonzero"/></clipPath><clipPath id="0ca81ce888"><rect x="0" width="1047" y="0" height="524"/></clipPath><mask id="3804e7f01c"><g filter="url(#ec9f788e87)"><rect x="-144" width="1728" fill="#000000" y="-80.999999" height="971.999992" fill-opacity="0.3"/></g></mask><clipPath id="176ba1f79d"><path d="M 0.800781 0.359375 L 722 0.359375 L 722 357 L 0.800781 357 Z M 0.800781 0.359375 " clip-rule="nonzero"/></clipPath><clipPath id="31f4817d94"><rect x="0" width="722" y="0" height="357"/></clipPath><mask id="bb464dba48"><g filter="url(#ec9f788e87)"><rect x="-144" width="1728" fill="#000000" y="-80.999999" height="971.999992" fill-opacity="0.3"/></g></mask><clipPath id="c56be60b66"><path d="M 0.761719 0.398438 L 319 0.398438 L 319 160 L 0.761719 160 Z M 0.761719 0.398438 " clip-rule="nonzero"/></clipPath><clipPath id="0791137bc9"><rect x="0" width="319" y="0" height="160"/></clipPath></defs><g mask="url(#e69f84af2b)"><g transform="matrix(1, 0, 0, 1, 0, 326)"><g clip-path="url(#48517ef49b)"><g clip-path="url(#d15eb26fff)"><path stroke-linecap="butt" transform="matrix(0.720642, 0.207785, -0.207785, 0.720642, -0.243754, 0.976566)" fill="none" stroke-linejoin="miter" d="M -0.000362912 0.498787 L 1998.216904 0.497778 " stroke="#a7e2ff" stroke-width="1" stroke-opacity="1" stroke-miterlimit="4"/></g></g></g></g><g mask="url(#51cd30da46)"><g transform="matrix(1, 0, 0, 1, 0, 607)"><g clip-path="url(#dae374e25a)"><g clip-path="url(#9fee38467a)"><path stroke-linecap="butt" transform="matrix(0.74451, 0.090582, -0.090582, 0.74451, -0.302152, 0.763251)" fill="none" stroke-linejoin="miter" d="M -0.0000868634 0.501639 L 1934.158419 0.500594 " stroke="#a7e2ff" stroke-width="1" stroke-opacity="1" stroke-miterlimit="4"/></g></g></g></g><g mask="url(#6df5dbaedb)"><g transform="matrix(1, 0, 0, 1, 0, 3)"><g clip-path="url(#298ed6c8ac)"><g clip-path="url(#9275214731)"><path stroke-linecap="butt" transform="matrix(0.677239, 0.322253, -0.322253, 0.677239, -0.186818, 1.199053)" fill="none" stroke-linejoin="miter" d="M 0.0011432 0.501509 L 2126.280345 0.500598 " stroke="#a7e2ff" stroke-width="1" stroke-opacity="1" stroke-miterlimit="4"/></g></g></g></g><g mask="url(#0045224dee)"><g transform="matrix(1, 0, 0, 1, 596, 0.000000000000039746)"><g clip-path="url(#536857b6a7)"><g clip-path="url(#260563d3f5)"><path stroke-linecap="butt" transform="matrix(0.602463, 0.446698, -0.446698, 0.602463, 1.475113, 0.0366649)" fill="none" stroke-linejoin="miter" d="M -0.000342734 0.503487 L 1398.26146 0.499108 " stroke="#a7e2ff" stroke-width="1" stroke-opacity="1" stroke-miterlimit="4"/></g></g></g></g><g mask="url(#7033daf7cc)"><g transform="matrix(1, 0, 0, 1, 1044, 0.000000000000039746)"><g clip-path="url(#2866f9babf)"><g clip-path="url(#8aa6f70033)"><path stroke-linecap="butt" transform="matrix(0.46671, 0.587096, -0.587096, 0.46671, 1.456243, 0.103718)" fill="none" stroke-linejoin="miter" d="M -0.0000495896 0.497631 L 845.254668 0.498012 " stroke="#a7e2ff" stroke-width="1" stroke-opacity="1" stroke-miterlimit="4"/></g></g></g></g><g mask="url(#3eb1b38b3c)"><g transform="matrix(1, 0, 0, 1, 151, 165)"><g clip-path="url(#18ed1b9287)"><g clip-path="url(#089884ceb7)"><path stroke-linecap="butt" transform="matrix(0.670602, -0.335847, 0.335847, 0.670602, 1.461244, 644.999499)" fill="none" stroke-linejoin="miter" d="M -0.000990258 0.5012 L 1919.207252 0.498452 " stroke="#a7e2ff" stroke-width="1" stroke-opacity="1" stroke-miterlimit="4"/></g></g></g></g><g mask="url(#c5ad70daaf)"><g transform="matrix(1, 0, 0, 1, 1405, 0.000000000000039746)"><g clip-path="url(#5ea8fedb72)"><g clip-path="url(#9f2154ce2d)"><path stroke-linecap="butt" transform="matrix(0.282193, 0.694886, -0.694886, 0.282193, 2.10517, 0.19548)" fill="none" stroke-linejoin="miter" d="M -0.000745896 0.499574 L 116.56531 0.498995 " stroke="#a7e2ff" stroke-width="1" stroke-opacity="1" stroke-miterlimit="4"/></g></g></g></g><g mask="url(#b276f3b176)"><g transform="matrix(1, 0, 0, 1, 0, 0.000000000000039746)"><g clip-path="url(#0ca81ce888)"><g clip-path="url(#10fedca02e)"><path stroke-linecap="butt" transform="matrix(0.670805, -0.335441, 0.335441, 0.670805, -0.515701, 522.813498)" fill="none" stroke-linejoin="miter" d="M 0.000662432 0.499642 L 1558.593669 0.499274 " stroke="#a7e2ff" stroke-width="1" stroke-opacity="1" stroke-miterlimit="4"/></g></g></g></g><g mask="url(#3804e7f01c)"><g transform="matrix(1, 0, 0, 1, 718, 453)"><g clip-path="url(#31f4817d94)"><g clip-path="url(#176ba1f79d)"><path stroke-linecap="butt" transform="matrix(0.672286, -0.332463, 0.332463, 0.672286, 1.486103, 356.998515)" fill="none" stroke-linejoin="miter" d="M -0.000745221 0.501535 L 1070.974336 0.49795 " stroke="#a7e2ff" stroke-width="1" stroke-opacity="1" stroke-miterlimit="4"/></g></g></g></g><g mask="url(#bb464dba48)"><g transform="matrix(1, 0, 0, 1, 1121, 650)"><g clip-path="url(#0791137bc9)"><g clip-path="url(#c56be60b66)"><path stroke-linecap="butt" transform="matrix(0.670226, -0.336596, 0.336596, 0.670226, 1.486629, 159.999862)" fill="none" stroke-linejoin="miter" d="M 0.000999568 0.501939 L 472.972088 0.497691 " stroke="#a7e2ff" stroke-width="1" stroke-opacity="1" stroke-miterlimit="4"/></g></g></g></g></svg>