<svg xmlns="http://www.w3.org/2000/svg" xmlns:xlink="http://www.w3.org/1999/xlink" width="416" zoomAndPan="magnify" viewBox="0 0 312 311.999988" height="416" preserveAspectRatio="xMidYMid meet" version="1.0"><defs><clipPath id="0dc326ce37"><path d="M 77.453125 77.453125 L 234.203125 77.453125 L 234.203125 234.203125 L 77.453125 234.203125 Z M 77.453125 77.453125 " clip-rule="nonzero"/></clipPath></defs><g clip-path="url(#0dc326ce37)"><path fill="#ffffff" d="M 156.089844 217.792969 C 139.738281 217.792969 124.25 211.316406 112.484375 199.5625 C 100.570312 187.652344 94.007812 172.179688 94.007812 156 C 94.007812 139.773438 100.570312 124.152344 112.492188 112.015625 C 124.109375 100.21875 139.183594 93.980469 156.089844 93.980469 C 172.910156 93.980469 188.132812 100.296875 200.113281 112.25 C 211.789062 123.894531 217.957031 139.023438 217.957031 156.003906 C 217.957031 173.015625 211.875 187.992188 200.363281 199.316406 C 188.246094 211.230469 172.519531 217.792969 156.089844 217.792969 Z M 155.871094 77.453125 C 134.535156 77.453125 115.460938 85.335938 100.703125 100.25 C 85.710938 115.476562 77.453125 135.277344 77.453125 156 C 77.453125 177.105469 85.433594 196.21875 100.53125 211.277344 C 115.480469 226.28125 135.132812 234.542969 155.871094 234.542969 C 176.820312 234.542969 196.796875 226.210938 212.113281 211.085938 C 226.789062 196.644531 234.542969 177.59375 234.542969 156 C 234.542969 134.472656 226.707031 115.269531 211.882812 100.472656 C 196.796875 85.414062 177.429688 77.453125 155.871094 77.453125 " fill-opacity="1" fill-rule="nonzero"/></g><path fill="#ffffff" d="M 155.964844 166.753906 L 146.328125 161.902344 C 146.007812 161.746094 145.640625 161.722656 145.304688 161.847656 C 144.96875 161.96875 144.703125 162.226562 144.5625 162.554688 C 142.828125 166.667969 140.339844 168.421875 136.253906 168.421875 C 128.066406 168.421875 127.179688 159.734375 127.179688 155.996094 C 127.179688 147.757812 130.234375 143.578125 136.253906 143.578125 C 137.058594 143.578125 141.210938 143.84375 143.660156 149.082031 C 143.808594 149.398438 144.082031 149.644531 144.414062 149.753906 C 144.75 149.871094 145.113281 149.839844 145.421875 149.679688 L 155.699219 144.308594 C 156.007812 144.148438 156.238281 143.871094 156.335938 143.539062 C 156.4375 143.210938 156.398438 142.851562 156.234375 142.546875 C 152.003906 134.84375 144.539062 130.773438 134.636719 130.773438 C 120.554688 130.773438 110.71875 141.148438 110.71875 155.996094 C 110.71875 171.34375 120.269531 181.261719 135.050781 181.261719 C 143.949219 181.261719 151.96875 176.503906 156.503906 168.539062 C 156.679688 168.234375 156.722656 167.867188 156.621094 167.53125 C 156.515625 167.191406 156.28125 166.910156 155.964844 166.753906 " fill-opacity="1" fill-rule="nonzero"/><path fill="#ffffff" d="M 201.242188 167.53125 C 201.140625 167.195312 200.90625 166.914062 200.589844 166.753906 L 190.984375 161.898438 C 190.664062 161.738281 190.292969 161.714844 189.957031 161.839844 C 189.621094 161.964844 189.351562 162.222656 189.214844 162.550781 C 187.5 166.667969 185.007812 168.421875 180.890625 168.421875 C 172.671875 168.421875 171.785156 159.734375 171.785156 155.996094 C 171.785156 147.773438 174.847656 143.605469 180.890625 143.605469 C 181.699219 143.605469 185.859375 143.867188 188.304688 149.082031 C 188.453125 149.402344 188.726562 149.644531 189.058594 149.753906 C 189.390625 149.867188 189.753906 149.839844 190.066406 149.679688 L 200.339844 144.316406 C 200.648438 144.15625 200.878906 143.878906 200.976562 143.546875 C 201.078125 143.214844 201.039062 142.859375 200.875 142.554688 C 196.605469 134.738281 189.328125 130.773438 179.246094 130.773438 C 165.164062 130.773438 155.328125 141.148438 155.328125 155.996094 C 155.328125 171.34375 164.890625 181.261719 179.691406 181.261719 C 188.546875 181.261719 196.5625 176.507812 201.128906 168.542969 C 201.300781 168.234375 201.34375 167.871094 201.242188 167.53125 " fill-opacity="1" fill-rule="nonzero"/></svg>