<svg xmlns="http://www.w3.org/2000/svg" xmlns:xlink="http://www.w3.org/1999/xlink" width="968" zoomAndPan="magnify" viewBox="0 0 726 725.999996" height="968" preserveAspectRatio="xMidYMid meet" version="1.0"><defs><clipPath id="1e737f6a68"><path d="M 0 0 L 725.992188 0 L 725.992188 725.992188 L 0 725.992188 Z M 0 0 " clip-rule="nonzero"/></clipPath><linearGradient x1="0" gradientTransform="matrix(0.750332, 0, 0, 0.750332, 0.0000022, 0.00002)" y1="483.78" x2="967.55902" gradientUnits="userSpaceOnUse" y2="483.78" id="986192b2b9"><stop stop-opacity="1" stop-color="rgb(29.798889%, 30.589294%, 67.449951%)" offset="0"/><stop stop-opacity="1" stop-color="rgb(29.927063%, 30.717468%, 67.523193%)" offset="0.015625"/><stop stop-opacity="1" stop-color="rgb(30.184937%, 30.975342%, 67.669678%)" offset="0.03125"/><stop stop-opacity="1" stop-color="rgb(30.44281%, 31.231689%, 67.816162%)" offset="0.046875"/><stop stop-opacity="1" stop-color="rgb(30.699158%, 31.489563%, 67.964172%)" offset="0.0625"/><stop stop-opacity="1" stop-color="rgb(30.957031%, 31.745911%, 68.110657%)" offset="0.078125"/><stop stop-opacity="1" stop-color="rgb(31.214905%, 32.003784%, 68.258667%)" offset="0.09375"/><stop stop-opacity="1" stop-color="rgb(31.472778%, 32.260132%, 68.405151%)" offset="0.109375"/><stop stop-opacity="1" stop-color="rgb(31.730652%, 32.518005%, 68.553162%)" offset="0.125"/><stop stop-opacity="1" stop-color="rgb(31.987%, 32.774353%, 68.699646%)" offset="0.140625"/><stop stop-opacity="1" stop-color="rgb(32.244873%, 33.032227%, 68.847656%)" offset="0.15625"/><stop stop-opacity="1" stop-color="rgb(32.502747%, 33.288574%, 68.994141%)" offset="0.171875"/><stop stop-opacity="1" stop-color="rgb(32.76062%, 33.546448%, 69.142151%)" offset="0.1875"/><stop stop-opacity="1" stop-color="rgb(33.016968%, 33.804321%, 69.288635%)" offset="0.203125"/><stop stop-opacity="1" stop-color="rgb(33.274841%, 34.060669%, 69.436646%)" offset="0.21875"/><stop stop-opacity="1" stop-color="rgb(33.532715%, 34.318542%, 69.58313%)" offset="0.234375"/><stop stop-opacity="1" stop-color="rgb(33.790588%, 34.57489%, 69.729614%)" offset="0.25"/><stop stop-opacity="1" stop-color="rgb(34.046936%, 34.832764%, 69.877625%)" offset="0.265625"/><stop stop-opacity="1" stop-color="rgb(34.30481%, 35.089111%, 70.024109%)" offset="0.28125"/><stop stop-opacity="1" stop-color="rgb(34.562683%, 35.346985%, 70.172119%)" offset="0.296875"/><stop stop-opacity="1" stop-color="rgb(34.820557%, 35.603333%, 70.318604%)" offset="0.3125"/><stop stop-opacity="1" stop-color="rgb(35.076904%, 35.861206%, 70.466614%)" offset="0.328125"/><stop stop-opacity="1" stop-color="rgb(35.334778%, 36.11908%, 70.613098%)" offset="0.34375"/><stop stop-opacity="1" stop-color="rgb(35.592651%, 36.375427%, 70.761108%)" offset="0.359375"/><stop stop-opacity="1" stop-color="rgb(35.850525%, 36.633301%, 70.907593%)" offset="0.375"/><stop stop-opacity="1" stop-color="rgb(36.106873%, 36.889648%, 71.055603%)" offset="0.390625"/><stop stop-opacity="1" stop-color="rgb(36.364746%, 37.147522%, 71.202087%)" offset="0.40625"/><stop stop-opacity="1" stop-color="rgb(36.62262%, 37.40387%, 71.350098%)" offset="0.421875"/><stop stop-opacity="1" stop-color="rgb(36.880493%, 37.661743%, 71.496582%)" offset="0.4375"/><stop stop-opacity="1" stop-color="rgb(37.136841%, 37.918091%, 71.643066%)" offset="0.453125"/><stop stop-opacity="1" stop-color="rgb(37.394714%, 38.175964%, 71.791077%)" offset="0.46875"/><stop stop-opacity="1" stop-color="rgb(37.652588%, 38.432312%, 71.937561%)" offset="0.484375"/><stop stop-opacity="1" stop-color="rgb(37.910461%, 38.690186%, 72.085571%)" offset="0.5"/><stop stop-opacity="1" stop-color="rgb(38.194275%, 38.972473%, 72.244263%)" offset="0.507812"/><stop stop-opacity="1" stop-color="rgb(38.50708%, 39.277649%, 72.416687%)" offset="0.515625"/><stop stop-opacity="1" stop-color="rgb(38.819885%, 39.584351%, 72.587585%)" offset="0.523438"/><stop stop-opacity="1" stop-color="rgb(39.13269%, 39.891052%, 72.76001%)" offset="0.53125"/><stop stop-opacity="1" stop-color="rgb(39.445496%, 40.197754%, 72.930908%)" offset="0.539062"/><stop stop-opacity="1" stop-color="rgb(39.756775%, 40.504456%, 73.101807%)" offset="0.546875"/><stop stop-opacity="1" stop-color="rgb(40.06958%, 40.809631%, 73.274231%)" offset="0.554688"/><stop stop-opacity="1" stop-color="rgb(40.382385%, 41.116333%, 73.445129%)" offset="0.5625"/><stop stop-opacity="1" stop-color="rgb(40.69519%, 41.423035%, 73.617554%)" offset="0.570312"/><stop stop-opacity="1" stop-color="rgb(41.007996%, 41.729736%, 73.788452%)" offset="0.578125"/><stop stop-opacity="1" stop-color="rgb(41.319275%, 42.036438%, 73.960876%)" offset="0.585938"/><stop stop-opacity="1" stop-color="rgb(41.63208%, 42.341614%, 74.131775%)" offset="0.59375"/><stop stop-opacity="1" stop-color="rgb(41.944885%, 42.648315%, 74.304199%)" offset="0.601562"/><stop stop-opacity="1" stop-color="rgb(42.25769%, 42.955017%, 74.475098%)" offset="0.609375"/><stop stop-opacity="1" stop-color="rgb(42.570496%, 43.261719%, 74.645996%)" offset="0.617188"/><stop stop-opacity="1" stop-color="rgb(42.881775%, 43.56842%, 74.81842%)" offset="0.625"/><stop stop-opacity="1" stop-color="rgb(43.19458%, 43.873596%, 74.989319%)" offset="0.632812"/><stop stop-opacity="1" stop-color="rgb(43.507385%, 44.180298%, 75.161743%)" offset="0.640625"/><stop stop-opacity="1" stop-color="rgb(43.82019%, 44.487%, 75.332642%)" offset="0.648438"/><stop stop-opacity="1" stop-color="rgb(44.132996%, 44.793701%, 75.505066%)" offset="0.65625"/><stop stop-opacity="1" stop-color="rgb(44.444275%, 45.100403%, 75.675964%)" offset="0.664062"/><stop stop-opacity="1" stop-color="rgb(44.75708%, 45.407104%, 75.846863%)" offset="0.671875"/><stop stop-opacity="1" stop-color="rgb(45.069885%, 45.71228%, 76.019287%)" offset="0.679688"/><stop stop-opacity="1" stop-color="rgb(45.38269%, 46.018982%, 76.190186%)" offset="0.6875"/><stop stop-opacity="1" stop-color="rgb(45.695496%, 46.325684%, 76.36261%)" offset="0.695312"/><stop stop-opacity="1" stop-color="rgb(46.006775%, 46.632385%, 76.533508%)" offset="0.703125"/><stop stop-opacity="1" stop-color="rgb(46.31958%, 46.939087%, 76.705933%)" offset="0.710938"/><stop stop-opacity="1" stop-color="rgb(46.632385%, 47.244263%, 76.876831%)" offset="0.71875"/><stop stop-opacity="1" stop-color="rgb(46.94519%, 47.550964%, 77.047729%)" offset="0.726562"/><stop stop-opacity="1" stop-color="rgb(47.257996%, 47.857666%, 77.220154%)" offset="0.734375"/><stop stop-opacity="1" stop-color="rgb(47.569275%, 48.164368%, 77.391052%)" offset="0.742188"/><stop stop-opacity="1" stop-color="rgb(47.88208%, 48.471069%, 77.563477%)" offset="0.75"/><stop stop-opacity="1" stop-color="rgb(48.194885%, 48.776245%, 77.734375%)" offset="0.757812"/><stop stop-opacity="1" stop-color="rgb(48.50769%, 49.082947%, 77.906799%)" offset="0.765625"/><stop stop-opacity="1" stop-color="rgb(48.820496%, 49.389648%, 78.077698%)" offset="0.773438"/><stop stop-opacity="1" stop-color="rgb(49.131775%, 49.69635%, 78.250122%)" offset="0.78125"/><stop stop-opacity="1" stop-color="rgb(49.44458%, 50.003052%, 78.421021%)" offset="0.789062"/><stop stop-opacity="1" stop-color="rgb(49.757385%, 50.308228%, 78.591919%)" offset="0.796875"/><stop stop-opacity="1" stop-color="rgb(50.07019%, 50.614929%, 78.764343%)" offset="0.804688"/><stop stop-opacity="1" stop-color="rgb(50.382996%, 50.921631%, 78.935242%)" offset="0.8125"/><stop stop-opacity="1" stop-color="rgb(50.694275%, 51.228333%, 79.107666%)" offset="0.820312"/><stop stop-opacity="1" stop-color="rgb(51.00708%, 51.535034%, 79.278564%)" offset="0.828125"/><stop stop-opacity="1" stop-color="rgb(51.319885%, 51.84021%, 79.450989%)" offset="0.835938"/><stop stop-opacity="1" stop-color="rgb(51.63269%, 52.146912%, 79.621887%)" offset="0.84375"/><stop stop-opacity="1" stop-color="rgb(51.945496%, 52.453613%, 79.792786%)" offset="0.851562"/><stop stop-opacity="1" stop-color="rgb(52.256775%, 52.760315%, 79.96521%)" offset="0.859375"/><stop stop-opacity="1" stop-color="rgb(52.56958%, 53.067017%, 80.136108%)" offset="0.867188"/><stop stop-opacity="1" stop-color="rgb(52.882385%, 53.372192%, 80.308533%)" offset="0.875"/><stop stop-opacity="1" stop-color="rgb(53.19519%, 53.678894%, 80.479431%)" offset="0.882812"/><stop stop-opacity="1" stop-color="rgb(53.507996%, 53.985596%, 80.651855%)" offset="0.890625"/><stop stop-opacity="1" stop-color="rgb(53.819275%, 54.292297%, 80.822754%)" offset="0.898438"/><stop stop-opacity="1" stop-color="rgb(54.13208%, 54.598999%, 80.993652%)" offset="0.90625"/><stop stop-opacity="1" stop-color="rgb(54.444885%, 54.905701%, 81.166077%)" offset="0.914062"/><stop stop-opacity="1" stop-color="rgb(54.75769%, 55.210876%, 81.336975%)" offset="0.921875"/><stop stop-opacity="1" stop-color="rgb(55.070496%, 55.517578%, 81.509399%)" offset="0.929688"/><stop stop-opacity="1" stop-color="rgb(55.381775%, 55.82428%, 81.680298%)" offset="0.9375"/><stop stop-opacity="1" stop-color="rgb(55.69458%, 56.130981%, 81.852722%)" offset="0.945312"/><stop stop-opacity="1" stop-color="rgb(56.007385%, 56.437683%, 82.023621%)" offset="0.953125"/><stop stop-opacity="1" stop-color="rgb(56.32019%, 56.742859%, 82.196045%)" offset="0.960938"/><stop stop-opacity="1" stop-color="rgb(56.632996%, 57.049561%, 82.366943%)" offset="0.96875"/><stop stop-opacity="1" stop-color="rgb(56.944275%, 57.356262%, 82.537842%)" offset="0.976562"/><stop stop-opacity="1" stop-color="rgb(57.25708%, 57.662964%, 82.710266%)" offset="0.984375"/><stop stop-opacity="1" stop-color="rgb(57.569885%, 57.969666%, 82.881165%)" offset="0.992188"/><stop stop-opacity="1" stop-color="rgb(57.88269%, 58.274841%, 83.053589%)" offset="1"/></linearGradient><clipPath id="ccab2baba1"><path d="M 171.234375 171.234375 L 554.660156 171.234375 L 554.660156 554.660156 L 171.234375 554.660156 Z M 171.234375 171.234375 " clip-rule="nonzero"/></clipPath><clipPath id="0b612d07ee"><rect x="0" width="726" y="0" height="726"/></clipPath></defs><rect x="-72.6" width="871.2" fill="#ffffff" y="-72.6" height="871.199995" fill-opacity="1"/><g transform="matrix(1, 0, 0, 1, 0, 0.000000000000086826)"><g clip-path="url(#0b612d07ee)"><g clip-path="url(#1e737f6a68)"><path fill="url(#986192b2b9)" d="M 0 0 L 0 725.992188 L 725.992188 725.992188 L 725.992188 0 Z M 0 0 " fill-rule="nonzero"/></g><g clip-path="url(#ccab2baba1)"><path fill="#ffffff" d="M 363.21875 513.867188 C 323.296875 513.867188 285.488281 498.058594 256.765625 469.359375 C 227.667969 440.277344 211.644531 402.503906 211.644531 363 C 211.644531 323.386719 227.675781 285.25 256.78125 255.617188 C 285.144531 226.808594 321.949219 211.582031 363.21875 211.582031 C 404.292969 211.582031 441.457031 227.003906 470.699219 256.1875 C 499.207031 284.617188 514.273438 321.554688 514.273438 363.011719 C 514.273438 404.542969 499.417969 441.109375 471.3125 468.761719 C 441.726562 497.84375 403.335938 513.867188 363.21875 513.867188 Z M 362.683594 171.234375 C 310.59375 171.234375 264.023438 190.476562 228 226.886719 C 191.394531 264.0625 171.234375 312.40625 171.234375 363 C 171.234375 414.527344 190.71875 461.199219 227.574219 497.960938 C 264.074219 534.589844 312.058594 554.765625 362.683594 554.765625 C 413.835938 554.765625 462.605469 534.425781 500.003906 497.496094 C 535.828125 462.230469 554.765625 415.722656 554.765625 363 C 554.765625 310.441406 535.632812 263.5625 499.441406 227.433594 C 462.609375 190.667969 415.316406 171.234375 362.683594 171.234375 " fill-opacity="1" fill-rule="nonzero"/></g><path fill="#ffffff" d="M 362.917969 389.253906 L 339.386719 377.414062 C 338.609375 377.027344 337.707031 376.976562 336.890625 377.273438 C 336.074219 377.578125 335.417969 378.203125 335.078125 379 C 330.839844 389.046875 324.773438 393.332031 314.789062 393.332031 C 294.800781 393.332031 292.640625 372.121094 292.640625 362.996094 C 292.640625 342.878906 300.09375 332.679688 314.789062 332.679688 C 316.757812 332.679688 326.898438 333.324219 332.878906 346.113281 C 333.242188 346.886719 333.90625 347.484375 334.71875 347.757812 C 335.53125 348.035156 336.421875 347.964844 337.179688 347.566406 L 362.269531 334.457031 C 363.019531 334.070312 363.582031 333.390625 363.824219 332.582031 C 364.070312 331.773438 363.976562 330.898438 363.574219 330.160156 C 353.25 311.351562 335.015625 301.417969 310.84375 301.417969 C 276.460938 301.417969 252.449219 326.738281 252.449219 362.996094 C 252.449219 400.464844 275.769531 424.675781 311.851562 424.675781 C 333.578125 424.675781 353.160156 413.066406 364.234375 393.617188 C 364.664062 392.867188 364.761719 391.980469 364.515625 391.152344 C 364.261719 390.328125 363.6875 389.640625 362.917969 389.253906 " fill-opacity="1" fill-rule="nonzero"/><path fill="#ffffff" d="M 473.460938 391.15625 C 473.214844 390.332031 472.636719 389.644531 471.867188 389.253906 L 448.414062 377.402344 C 447.636719 377.011719 446.726562 376.960938 445.90625 377.261719 C 445.085938 377.566406 444.433594 378.195312 444.097656 379 C 439.910156 389.046875 433.828125 393.332031 423.769531 393.332031 C 403.710938 393.332031 401.542969 372.121094 401.542969 362.996094 C 401.542969 342.917969 409.019531 332.738281 423.769531 332.738281 C 425.742188 332.738281 435.902344 333.382812 441.875 346.113281 C 442.238281 346.890625 442.902344 347.484375 443.714844 347.757812 C 444.527344 348.03125 445.414062 347.964844 446.171875 347.566406 L 471.257812 334.476562 C 472.007812 334.082031 472.570312 333.40625 472.816406 332.597656 C 473.058594 331.792969 472.96875 330.921875 472.5625 330.179688 C 462.136719 311.089844 444.367188 301.410156 419.757812 301.410156 C 385.378906 301.410156 361.367188 326.738281 361.367188 362.996094 C 361.367188 400.464844 384.710938 424.675781 420.84375 424.675781 C 442.46875 424.675781 462.03125 413.066406 473.179688 393.625 C 473.605469 392.875 473.707031 391.980469 473.460938 391.15625 " fill-opacity="1" fill-rule="nonzero"/></g></g></svg>